<mxfile host="app.diagrams.net" modified="2024-04-26T19:44:56.969Z" agent="Mozilla/5.0 (X11; Ubuntu; Linux x86_64; rv:123.0) Gecko/20100101 Firefox/123.0" etag="-znBBozaxA1UNru5IVSY" version="24.3.1" type="github">
  <diagram name="Page-1" id="gE5XjJg1JYwGYDCGhqvS">
    <mxGraphModel dx="965" dy="822" grid="1" gridSize="10" guides="1" tooltips="1" connect="1" arrows="1" fold="1" page="1" pageScale="1" pageWidth="827" pageHeight="1169" math="0" shadow="0">
      <root>
        <mxCell id="0" />
        <mxCell id="1" parent="0" />
        <mxCell id="Ponu5pMoq9kvaILuCQ-i-1" value="" style="rounded=0;whiteSpace=wrap;html=1;" vertex="1" parent="1">
          <mxGeometry x="100" y="90" width="560" height="100" as="geometry" />
        </mxCell>
        <mxCell id="Ponu5pMoq9kvaILuCQ-i-2" value="Audio of duration" style="text;html=1;align=center;verticalAlign=middle;whiteSpace=wrap;rounded=0;" vertex="1" parent="1">
          <mxGeometry x="340" y="10" width="210" height="30" as="geometry" />
        </mxCell>
        <mxCell id="Ponu5pMoq9kvaILuCQ-i-3" value="" style="rounded=0;whiteSpace=wrap;html=1;dashed=1;" vertex="1" parent="1">
          <mxGeometry x="100" y="100" width="120" height="80" as="geometry" />
        </mxCell>
        <mxCell id="Ponu5pMoq9kvaILuCQ-i-4" value="" style="rounded=0;whiteSpace=wrap;html=1;dashed=1;glass=0;fillColor=none;" vertex="1" parent="1">
          <mxGeometry x="170" y="100" width="120" height="80" as="geometry" />
        </mxCell>
        <mxCell id="Ponu5pMoq9kvaILuCQ-i-5" value="" style="rounded=0;whiteSpace=wrap;html=1;dashed=1;glass=0;fillColor=none;" vertex="1" parent="1">
          <mxGeometry x="100" y="320" width="120" height="80" as="geometry" />
        </mxCell>
        <mxCell id="Ponu5pMoq9kvaILuCQ-i-6" value="Windows of length WINDOW_SIZE" style="text;html=1;align=center;verticalAlign=middle;whiteSpace=wrap;rounded=0;" vertex="1" parent="1">
          <mxGeometry x="55" y="410" width="210" height="30" as="geometry" />
        </mxCell>
        <mxCell id="Ponu5pMoq9kvaILuCQ-i-8" value="" style="endArrow=none;dashed=1;html=1;dashPattern=1 3;strokeWidth=2;rounded=0;" edge="1" parent="1">
          <mxGeometry width="50" height="50" relative="1" as="geometry">
            <mxPoint x="170" y="210" as="sourcePoint" />
            <mxPoint x="220" y="210" as="targetPoint" />
          </mxGeometry>
        </mxCell>
        <mxCell id="Ponu5pMoq9kvaILuCQ-i-9" value="Overlap of length WIN_OVERLAP" style="text;html=1;align=center;verticalAlign=middle;whiteSpace=wrap;rounded=0;" vertex="1" parent="1">
          <mxGeometry x="100" y="240" width="210" height="30" as="geometry" />
        </mxCell>
        <mxCell id="Ponu5pMoq9kvaILuCQ-i-11" value="" style="endArrow=none;html=1;rounded=0;" edge="1" parent="1">
          <mxGeometry width="50" height="50" relative="1" as="geometry">
            <mxPoint x="170" y="230" as="sourcePoint" />
            <mxPoint x="170" y="200" as="targetPoint" />
          </mxGeometry>
        </mxCell>
        <mxCell id="Ponu5pMoq9kvaILuCQ-i-13" value="" style="endArrow=none;html=1;rounded=0;" edge="1" parent="1">
          <mxGeometry width="50" height="50" relative="1" as="geometry">
            <mxPoint x="220" y="230" as="sourcePoint" />
            <mxPoint x="220" y="200" as="targetPoint" />
          </mxGeometry>
        </mxCell>
        <mxCell id="Ponu5pMoq9kvaILuCQ-i-14" value="" style="endArrow=classic;startArrow=classic;html=1;rounded=0;" edge="1" parent="1">
          <mxGeometry width="50" height="50" relative="1" as="geometry">
            <mxPoint x="100" y="40" as="sourcePoint" />
            <mxPoint x="660" y="40" as="targetPoint" />
          </mxGeometry>
        </mxCell>
        <mxCell id="Ponu5pMoq9kvaILuCQ-i-15" value="" style="rounded=0;whiteSpace=wrap;html=1;dashed=1;glass=0;fillColor=none;" vertex="1" parent="1">
          <mxGeometry x="510" y="100" width="120" height="80" as="geometry" />
        </mxCell>
      </root>
    </mxGraphModel>
  </diagram>
</mxfile>
